<?xml version="1.0" encoding="UTF-8" standalone="no"?>
<!-- Created with Inkscape (http://www.inkscape.org/) -->

<svg
   xmlns:dc="http://purl.org/dc/elements/1.1/"
   xmlns:cc="http://creativecommons.org/ns#"
   xmlns:rdf="http://www.w3.org/1999/02/22-rdf-syntax-ns#"
   xmlns:svg="http://www.w3.org/2000/svg"
   xmlns="http://www.w3.org/2000/svg"
   xmlns:sodipodi="http://sodipodi.sourceforge.net/DTD/sodipodi-0.dtd"
   xmlns:inkscape="http://www.inkscape.org/namespaces/inkscape"
   width="210mm"
   height="297mm"
   viewBox="0 0 210 297"
   version="1.1"
   id="svg8"
   inkscape:version="0.92.3 (2405546, 2018-03-11)"
   sodipodi:docname="hfo_logo2.svg"
   inkscape:export-filename="/tmp/hfo_logo.png"
   inkscape:export-xdpi="96"
   inkscape:export-ydpi="96">
  <defs
     id="defs2">
    <clipPath
       id="clipPath51"
       clipPathUnits="userSpaceOnUse">
      <path
         inkscape:connector-curvature="0"
         id="path49"
         d="m 5370.81,510.5 c -1327.95,0 -2655.91,506.6 -3669.11,1519.87 -2026.427,2026.41 -2026.454,5311.81 -0.07,7338.18 1013.31,1013.35 2341,1519.85 3669.13,1519.85 1327.8,0 2656.04,-506.8 3669.12,-1519.85 2026.42,-2026.4 2026.42,-5311.87 0,-7338.22 C 8026.68,1017.1 6698.75,510.5 5370.81,510.5 m -0.1,9969 c -1223.16,0 -2446.68,-466.8 -3379.94,-1400.06 C 124.055,7212.72 124,4186.16 1990.74,2319.38 2924.08,1386.04 4147.32,919.398 5370.64,919.398 c 1223.32,0 2446.72,466.722 3380.08,1400.072 1866.78,1866.78 1866.68,4893.25 0.02,6759.92 -933.49,933.51 -2156.58,1400.11 -3380.03,1400.11" />
    </clipPath>
    <radialGradient
       id="radialGradient57"
       spreadMethod="pad"
       gradientTransform="matrix(5188.92,0,0,-5188.92,5370.77,5699.45)"
       gradientUnits="userSpaceOnUse"
       r="1"
       cy="0"
       cx="0"
       fy="0"
       fx="0">
      <stop
         id="stop53"
         offset="0"
         style="stop-opacity:1;stop-color:#68bbe1" />
      <stop
         id="stop55"
         offset="1"
         style="stop-opacity:1;stop-color:#ffffff" />
    </radialGradient>
    <clipPath
       id="clipPath67"
       clipPathUnits="userSpaceOnUse">
      <path
         inkscape:connector-curvature="0"
         id="path65"
         d="M 5370.74,998.602 C 4167.69,998.602 2964.67,1457.54 2046.78,2375.45 210.984,4211.23 211,7187.66 2046.76,9023.42 c 917.79,917.79 2121.08,1376.88 3323.98,1376.88 668.35,0 1336.39,-141.6 1955.87,-424.79 -597.59,269.79 -1243.65,405.19 -1891.83,405.19 -1156.45,0 -2320.11,-430.71 -3229.64,-1296.78 C 342.828,7310.62 251.41,4383.8 2000.78,2546.63 c 42.47,-44.56 86.2,-87.16 130.05,-129.7 -169.3,193.92 -316.41,401.04 -441.39,618.18 81.8,-110.64 169.49,-213.2 262.75,-306.46 187.87,-187.87 311.14,-268.5 396.62,-268.5 257.7,0 172.44,731.91 482.13,1463.92 309.66,731.92 1014.42,1463.92 2851.21,1463.92 0.11,0 -0.08,0 0.03,0 4283.63,0.04 4384.82,2004.62 2659.4,3730.06 -155.96,155.97 -320.71,296.28 -492.28,421.01 369.16,-177.25 713.02,-412.84 1018.52,-707.08 v 0 0 c -40.33,45.93 -80.81,91.6 -123.24,136.21 -106.35,111.69 -217.07,216.79 -331.62,315.27 96.56,-82.15 190.59,-168.84 281.8,-260.05 C 10530.5,7187.62 10530.5,4211.24 8694.72,2375.46 7776.85,1457.58 6573.78,998.602 5370.74,998.602" />
    </clipPath>
    <linearGradient
       id="linearGradient73"
       spreadMethod="pad"
       gradientTransform="matrix(-9401.66,-0.00635112,-0.00635112,9401.66,10071.6,5699.44)"
       gradientUnits="userSpaceOnUse"
       y2="0"
       x2="1"
       y1="0"
       x1="0">
      <stop
         id="stop69"
         offset="0"
         style="stop-opacity:1;stop-color:#00adef" />
      <stop
         id="stop71"
         offset="1"
         style="stop-opacity:1;stop-color:#ffffff" />
    </linearGradient>
    <clipPath
       id="clipPath83"
       clipPathUnits="userSpaceOnUse">
      <path
         inkscape:connector-curvature="0"
         id="path81"
         d="m 2348.81,2460.15 c -85.48,0 -208.75,80.63 -396.62,268.5 -93.26,93.26 -180.95,195.82 -262.75,306.46 -974.702,1693.45 -607.57,4003.59 1002.94,5537.14 958.09,912.3 2169.25,1371.63 3339.31,1371.63 633.45,0 1254.85,-134.61 1817.61,-404.82 171.57,-124.73 336.32,-265.04 492.28,-421.01 C 10067,7392.61 9965.81,5388.03 5682.18,5387.99 c -0.11,0 0.08,0 -0.03,0 -1836.79,0 -2541.55,-732 -2851.21,-1463.92 -309.69,-732.01 -224.43,-1463.92 -482.13,-1463.92" />
    </clipPath>
    <clipPath
       id="clipPath89"
       clipPathUnits="userSpaceOnUse">
      <path
         inkscape:connector-curvature="0"
         id="path87"
         d="M 3945.6,5305 H 7915.2 V 9951.4 H 3945.6 Z" />
    </clipPath>
    <clipPath
       id="clipPath101"
       clipPathUnits="userSpaceOnUse">
      <path
         inkscape:connector-curvature="0"
         id="path99"
         d="m 2348.81,2460.15 c -85.48,0 -208.75,80.63 -396.62,268.5 -93.26,93.26 -180.95,195.82 -262.75,306.46 -974.702,1693.45 -607.57,4003.59 1002.94,5537.14 958.09,912.3 2169.25,1371.63 3339.31,1371.63 633.45,0 1254.85,-134.61 1817.61,-404.82 171.57,-124.73 336.32,-265.04 492.28,-421.01 C 10067,7392.61 9965.81,5388.03 5682.18,5387.99 c -0.11,0 0.08,0 -0.03,0 -1836.79,0 -2541.55,-732 -2851.21,-1463.92 -309.69,-732.01 -224.43,-1463.92 -482.13,-1463.92" />
    </clipPath>
    <clipPath
       id="clipPath107"
       clipPathUnits="userSpaceOnUse">
      <path
         inkscape:connector-curvature="0"
         id="path105"
         d="m 3225.6,4589.8 h 734.398 V 9596.2 H 3225.6 Z" />
    </clipPath>
    <clipPath
       id="clipPath119"
       clipPathUnits="userSpaceOnUse">
      <path
         inkscape:connector-curvature="0"
         id="path117"
         d="m 2348.81,2460.15 c -85.48,0 -208.75,80.63 -396.62,268.5 -93.26,93.26 -180.95,195.82 -262.75,306.46 -974.702,1693.45 -607.57,4003.59 1002.94,5537.14 958.09,912.3 2169.25,1371.63 3339.31,1371.63 633.45,0 1254.85,-134.61 1817.61,-404.82 171.57,-124.73 336.32,-265.04 492.28,-421.01 C 10067,7392.61 9965.81,5388.03 5682.18,5387.99 c -0.11,0 0.08,0 -0.03,0 -1836.79,0 -2541.55,-732 -2851.21,-1463.92 -309.69,-732.01 -224.43,-1463.92 -482.13,-1463.92" />
    </clipPath>
    <clipPath
       id="clipPath125"
       clipPathUnits="userSpaceOnUse">
      <path
         inkscape:connector-curvature="0"
         id="path123"
         d="m 7900.8,5305 h 374.398 V 9596.2 H 7900.8 Z" />
    </clipPath>
    <clipPath
       id="clipPath137"
       clipPathUnits="userSpaceOnUse">
      <path
         inkscape:connector-curvature="0"
         id="path135"
         d="m 2348.81,2460.15 c -85.48,0 -208.75,80.63 -396.62,268.5 -93.26,93.26 -180.95,195.82 -262.75,306.46 -974.702,1693.45 -607.57,4003.59 1002.94,5537.14 958.09,912.3 2169.25,1371.63 3339.31,1371.63 633.45,0 1254.85,-134.61 1817.61,-404.82 171.57,-124.73 336.32,-265.04 492.28,-421.01 C 10067,7392.61 9965.81,5388.03 5682.18,5387.99 c -0.11,0 0.08,0 -0.03,0 -1836.79,0 -2541.55,-732 -2851.21,-1463.92 -309.69,-732.01 -224.43,-1463.92 -482.13,-1463.92" />
    </clipPath>
    <clipPath
       id="clipPath143"
       clipPathUnits="userSpaceOnUse">
      <path
         inkscape:connector-curvature="0"
         id="path141"
         d="m 2865.6,3879.4 h 374.398 V 9236.2 H 2865.6 Z" />
    </clipPath>
    <clipPath
       id="clipPath155"
       clipPathUnits="userSpaceOnUse">
      <path
         inkscape:connector-curvature="0"
         id="path153"
         d="m 2348.81,2460.15 c -85.48,0 -208.75,80.63 -396.62,268.5 -93.26,93.26 -180.95,195.82 -262.75,306.46 -974.702,1693.45 -607.57,4003.59 1002.94,5537.14 958.09,912.3 2169.25,1371.63 3339.31,1371.63 633.45,0 1254.85,-134.61 1817.61,-404.82 171.57,-124.73 336.32,-265.04 492.28,-421.01 C 10067,7392.61 9965.81,5388.03 5682.18,5387.99 c -0.11,0 0.08,0 -0.03,0 -1836.79,0 -2541.55,-732 -2851.21,-1463.92 -309.69,-732.01 -224.43,-1463.92 -482.13,-1463.92" />
    </clipPath>
    <clipPath
       id="clipPath161"
       clipPathUnits="userSpaceOnUse">
      <path
         inkscape:connector-curvature="0"
         id="path159"
         d="m 8260.8,5660.2 h 374.398 v 3576 H 8260.8 Z" />
    </clipPath>
    <clipPath
       id="clipPath173"
       clipPathUnits="userSpaceOnUse">
      <path
         inkscape:connector-curvature="0"
         id="path171"
         d="m 2348.81,2460.15 c -85.48,0 -208.75,80.63 -396.62,268.5 -93.26,93.26 -180.95,195.82 -262.75,306.46 -974.702,1693.45 -607.57,4003.59 1002.94,5537.14 958.09,912.3 2169.25,1371.63 3339.31,1371.63 633.45,0 1254.85,-134.61 1817.61,-404.82 171.57,-124.73 336.32,-265.04 492.28,-421.01 C 10067,7392.61 9965.81,5388.03 5682.18,5387.99 c -0.11,0 0.08,0 -0.03,0 -1836.79,0 -2541.55,-732 -2851.21,-1463.92 -309.69,-732.01 -224.43,-1463.92 -482.13,-1463.92" />
    </clipPath>
    <clipPath
       id="clipPath179"
       clipPathUnits="userSpaceOnUse">
      <path
         inkscape:connector-curvature="0"
         id="path177"
         d="m 2505.6,2453.8 h 374.398 V 8881 H 2505.6 Z" />
    </clipPath>
    <clipPath
       id="clipPath191"
       clipPathUnits="userSpaceOnUse">
      <path
         inkscape:connector-curvature="0"
         id="path189"
         d="m 2348.81,2460.15 c -85.48,0 -208.75,80.63 -396.62,268.5 -93.26,93.26 -180.95,195.82 -262.75,306.46 -974.702,1693.45 -607.57,4003.59 1002.94,5537.14 958.09,912.3 2169.25,1371.63 3339.31,1371.63 633.45,0 1254.85,-134.61 1817.61,-404.82 171.57,-124.73 336.32,-265.04 492.28,-421.01 C 10067,7392.61 9965.81,5388.03 5682.18,5387.99 c -0.11,0 0.08,0 -0.03,0 -1836.79,0 -2541.55,-732 -2851.21,-1463.92 -309.69,-732.01 -224.43,-1463.92 -482.13,-1463.92" />
    </clipPath>
    <clipPath
       id="clipPath197"
       clipPathUnits="userSpaceOnUse">
      <path
         inkscape:connector-curvature="0"
         id="path195"
         d="m 8620.8,5660.2 h 374.398 V 8881 H 8620.8 Z" />
    </clipPath>
    <clipPath
       id="clipPath209"
       clipPathUnits="userSpaceOnUse">
      <path
         inkscape:connector-curvature="0"
         id="path207"
         d="m 2348.81,2460.15 c -85.48,0 -208.75,80.63 -396.62,268.5 -93.26,93.26 -180.95,195.82 -262.75,306.46 -974.702,1693.45 -607.57,4003.59 1002.94,5537.14 958.09,912.3 2169.25,1371.63 3339.31,1371.63 633.45,0 1254.85,-134.61 1817.61,-404.82 171.57,-124.73 336.32,-265.04 492.28,-421.01 C 10067,7392.61 9965.81,5388.03 5682.18,5387.99 c -0.11,0 0.08,0 -0.03,0 -1836.79,0 -2541.55,-732 -2851.21,-1463.92 -309.69,-732.01 -224.43,-1463.92 -482.13,-1463.92" />
    </clipPath>
    <clipPath
       id="clipPath215"
       clipPathUnits="userSpaceOnUse">
      <path
         inkscape:connector-curvature="0"
         id="path213"
         d="m 2145.6,2453.8 h 374.398 v 6072 H 2145.6 Z" />
    </clipPath>
    <clipPath
       id="clipPath227"
       clipPathUnits="userSpaceOnUse">
      <path
         inkscape:connector-curvature="0"
         id="path225"
         d="m 2348.81,2460.15 c -85.48,0 -208.75,80.63 -396.62,268.5 -93.26,93.26 -180.95,195.82 -262.75,306.46 -974.702,1693.45 -607.57,4003.59 1002.94,5537.14 958.09,912.3 2169.25,1371.63 3339.31,1371.63 633.45,0 1254.85,-134.61 1817.61,-404.82 171.57,-124.73 336.32,-265.04 492.28,-421.01 C 10067,7392.61 9965.81,5388.03 5682.18,5387.99 c -0.11,0 0.08,0 -0.03,0 -1836.79,0 -2541.55,-732 -2851.21,-1463.92 -309.69,-732.01 -224.43,-1463.92 -482.13,-1463.92" />
    </clipPath>
    <clipPath
       id="clipPath233"
       clipPathUnits="userSpaceOnUse">
      <path
         inkscape:connector-curvature="0"
         id="path231"
         d="m 8980.8,6015.4 h 374.398 V 8525.8 H 8980.8 Z" />
    </clipPath>
    <clipPath
       id="clipPath245"
       clipPathUnits="userSpaceOnUse">
      <path
         inkscape:connector-curvature="0"
         id="path243"
         d="m 2348.81,2460.15 c -85.48,0 -208.75,80.63 -396.62,268.5 -93.26,93.26 -180.95,195.82 -262.75,306.46 -974.702,1693.45 -607.57,4003.59 1002.94,5537.14 958.09,912.3 2169.25,1371.63 3339.31,1371.63 633.45,0 1254.85,-134.61 1817.61,-404.82 171.57,-124.73 336.32,-265.04 492.28,-421.01 C 10067,7392.61 9965.81,5388.03 5682.18,5387.99 c -0.11,0 0.08,0 -0.03,0 -1836.79,0 -2541.55,-732 -2851.21,-1463.92 -309.69,-732.01 -224.43,-1463.92 -482.13,-1463.92" />
    </clipPath>
    <clipPath
       id="clipPath251"
       clipPathUnits="userSpaceOnUse">
      <path
         inkscape:connector-curvature="0"
         id="path249"
         d="m 1785.6,2453.8 h 374.398 V 8170.6 H 1785.6 Z" />
    </clipPath>
    <clipPath
       id="clipPath263"
       clipPathUnits="userSpaceOnUse">
      <path
         inkscape:connector-curvature="0"
         id="path261"
         d="m 2348.81,2460.15 c -85.48,0 -208.75,80.63 -396.62,268.5 -93.26,93.26 -180.95,195.82 -262.75,306.46 -974.702,1693.45 -607.57,4003.59 1002.94,5537.14 958.09,912.3 2169.25,1371.63 3339.31,1371.63 633.45,0 1254.85,-134.61 1817.61,-404.82 171.57,-124.73 336.32,-265.04 492.28,-421.01 C 10067,7392.61 9965.81,5388.03 5682.18,5387.99 c -0.11,0 0.08,0 -0.03,0 -1836.79,0 -2541.55,-732 -2851.21,-1463.92 -309.69,-732.01 -224.43,-1463.92 -482.13,-1463.92" />
    </clipPath>
    <clipPath
       id="clipPath269"
       clipPathUnits="userSpaceOnUse">
      <path
         inkscape:connector-curvature="0"
         id="path267"
         d="m 9340.8,6730.6 h 374.398 v 1080 H 9340.8 Z" />
    </clipPath>
    <clipPath
       id="clipPath281"
       clipPathUnits="userSpaceOnUse">
      <path
         inkscape:connector-curvature="0"
         id="path279"
         d="m 2348.81,2460.15 c -85.48,0 -208.75,80.63 -396.62,268.5 -93.26,93.26 -180.95,195.82 -262.75,306.46 -974.702,1693.45 -607.57,4003.59 1002.94,5537.14 958.09,912.3 2169.25,1371.63 3339.31,1371.63 633.45,0 1254.85,-134.61 1817.61,-404.82 171.57,-124.73 336.32,-265.04 492.28,-421.01 C 10067,7392.61 9965.81,5388.03 5682.18,5387.99 c -0.11,0 0.08,0 -0.03,0 -1836.79,0 -2541.55,-732 -2851.21,-1463.92 -309.69,-732.01 -224.43,-1463.92 -482.13,-1463.92" />
    </clipPath>
    <clipPath
       id="clipPath287"
       clipPathUnits="userSpaceOnUse">
      <path
         inkscape:connector-curvature="0"
         id="path285"
         d="m 1425.6,2809 h 374.398 V 7455.4 H 1425.6 Z" />
    </clipPath>
    <clipPath
       id="clipPath299"
       clipPathUnits="userSpaceOnUse">
      <path
         inkscape:connector-curvature="0"
         id="path297"
         d="m 2348.81,2460.15 c -85.48,0 -208.75,80.63 -396.62,268.5 -93.26,93.26 -180.95,195.82 -262.75,306.46 -974.702,1693.45 -607.57,4003.59 1002.94,5537.14 958.09,912.3 2169.25,1371.63 3339.31,1371.63 633.45,0 1254.85,-134.61 1817.61,-404.82 171.57,-124.73 336.32,-265.04 492.28,-421.01 C 10067,7392.61 9965.81,5388.03 5682.18,5387.99 c -0.11,0 0.08,0 -0.03,0 -1836.79,0 -2541.55,-732 -2851.21,-1463.92 -309.69,-732.01 -224.43,-1463.92 -482.13,-1463.92" />
    </clipPath>
    <clipPath
       id="clipPath305"
       clipPathUnits="userSpaceOnUse">
      <path
         inkscape:connector-curvature="0"
         id="path303"
         d="m 1065.6,3524.2 h 374.398 V 6745 H 1065.6 Z" />
    </clipPath>
    <clipPath
       id="clipPath317"
       clipPathUnits="userSpaceOnUse">
      <path
         inkscape:connector-curvature="0"
         id="path315"
         d="m 2348.81,2460.15 c -85.48,0 -208.75,80.63 -396.62,268.5 -93.26,93.26 -180.95,195.82 -262.75,306.46 -974.702,1693.45 -607.57,4003.59 1002.94,5537.14 958.09,912.3 2169.25,1371.63 3339.31,1371.63 633.45,0 1254.85,-134.61 1817.61,-404.82 171.57,-124.73 336.32,-265.04 492.28,-421.01 C 10067,7392.61 9965.81,5388.03 5682.18,5387.99 c -0.11,0 0.08,0 -0.03,0 -1836.79,0 -2541.55,-732 -2851.21,-1463.92 -309.69,-732.01 -224.43,-1463.92 -482.13,-1463.92" />
    </clipPath>
    <clipPath
       id="clipPath323"
       clipPathUnits="userSpaceOnUse">
      <path
         inkscape:connector-curvature="0"
         id="path321"
         d="M 3945.6,4949.8 H 5040 v 369.598 H 3945.6 Z" />
    </clipPath>
    <clipPath
       id="clipPath335"
       clipPathUnits="userSpaceOnUse">
      <path
         inkscape:connector-curvature="0"
         id="path333"
         d="m 2348.81,2460.15 c -85.48,0 -208.75,80.63 -396.62,268.5 -93.26,93.26 -180.95,195.82 -262.75,306.46 -974.702,1693.45 -607.57,4003.59 1002.94,5537.14 958.09,912.3 2169.25,1371.63 3339.31,1371.63 633.45,0 1254.85,-134.61 1817.61,-404.82 171.57,-124.73 336.32,-265.04 492.28,-421.01 C 10067,7392.61 9965.81,5388.03 5682.18,5387.99 c -0.11,0 0.08,0 -0.03,0 -1836.79,0 -2541.55,-732 -2851.21,-1463.92 -309.69,-732.01 -224.43,-1463.92 -482.13,-1463.92" />
    </clipPath>
    <clipPath
       id="clipPath341"
       clipPathUnits="userSpaceOnUse">
      <path
         inkscape:connector-curvature="0"
         id="path339"
         d="m 3225.6,4234.6 h 374.398 v 369.598 H 3225.6 Z" />
    </clipPath>
    <clipPath
       id="clipPath355"
       clipPathUnits="userSpaceOnUse">
      <path
         inkscape:connector-curvature="0"
         id="path353"
         d="m 2130.83,2416.93 c -43.85,42.54 -87.58,85.14 -130.05,129.7 -1749.37,1837.17 -1657.952,4763.99 204.36,6537.29 909.53,866.07 2073.19,1296.78 3229.64,1296.78 648.18,0 1294.24,-135.4 1891.83,-405.19 384.94,-176 750.88,-406.67 1086.35,-692.05 114.55,-98.48 225.27,-203.58 331.62,-315.27 42.43,-44.61 82.91,-90.28 123.24,-136.21 -305.5,294.24 -649.36,529.83 -1018.52,707.08 -723.56,526.04 -1572.07,777.04 -2427.63,777.04 -1185.8,0 -2385.07,-481.97 -3285.34,-1382.25 C 552.848,7350.36 612.918,4491.18 1689.44,3035.11 c 124.98,-217.14 272.09,-424.26 441.39,-618.18" />
    </clipPath>
    <linearGradient
       id="linearGradient361"
       spreadMethod="pad"
       gradientTransform="matrix(-9401.66,-0.00635112,-0.00635112,9401.66,10071.6,5699.44)"
       gradientUnits="userSpaceOnUse"
       y2="0"
       x2="1"
       y1="0"
       x1="0">
      <stop
         id="stop357"
         offset="0"
         style="stop-opacity:1;stop-color:#25b3e2" />
      <stop
         id="stop359"
         offset="1"
         style="stop-opacity:1;stop-color:#72cae5" />
    </linearGradient>
    <clipPath
       id="clipPath371"
       clipPathUnits="userSpaceOnUse">
      <path
         inkscape:connector-curvature="0"
         id="path369"
         d="M 1689.44,3035.11 C 612.918,4491.18 552.848,7350.36 2136.33,8933.85 c 900.27,900.28 2099.54,1382.25 3285.34,1382.25 855.56,0 1704.07,-251 2427.63,-777.04 -562.76,270.21 -1184.16,404.82 -1817.61,404.82 -1170.06,0 -2381.22,-459.33 -3339.31,-1371.63 C 1081.87,7038.7 714.738,4728.56 1689.44,3035.11" />
    </clipPath>
    <clipPath
       id="clipPath377"
       clipPathUnits="userSpaceOnUse">
      <path
         inkscape:connector-curvature="0"
         id="path375"
         d="m 3672,9615.4 h 3489.6 v 705.602 H 3672 Z" />
    </clipPath>
    <clipPath
       id="clipPath389"
       clipPathUnits="userSpaceOnUse">
      <path
         inkscape:connector-curvature="0"
         id="path387"
         d="M 1689.44,3035.11 C 612.918,4491.18 552.848,7350.36 2136.33,8933.85 c 900.27,900.28 2099.54,1382.25 3285.34,1382.25 855.56,0 1704.07,-251 2427.63,-777.04 -562.76,270.21 -1184.16,404.82 -1817.61,404.82 -1170.06,0 -2381.22,-459.33 -3339.31,-1371.63 C 1081.87,7038.7 714.738,4728.56 1689.44,3035.11" />
    </clipPath>
    <clipPath
       id="clipPath395"
       clipPathUnits="userSpaceOnUse">
      <path
         inkscape:connector-curvature="0"
         id="path393"
         d="m 2976,8924.2 h 710.398 V 9975.4 H 2976 Z" />
    </clipPath>
    <clipPath
       id="clipPath407"
       clipPathUnits="userSpaceOnUse">
      <path
         inkscape:connector-curvature="0"
         id="path405"
         d="M 1689.44,3035.11 C 612.918,4491.18 552.848,7350.36 2136.33,8933.85 c 900.27,900.28 2099.54,1382.25 3285.34,1382.25 855.56,0 1704.07,-251 2427.63,-777.04 -562.76,270.21 -1184.16,404.82 -1817.61,404.82 -1170.06,0 -2381.22,-459.33 -3339.31,-1371.63 C 1081.87,7038.7 714.738,4728.56 1689.44,3035.11" />
    </clipPath>
    <clipPath
       id="clipPath413"
       clipPathUnits="userSpaceOnUse">
      <path
         inkscape:connector-curvature="0"
         id="path411"
         d="m 7147.2,9615.4 h 710.402 v 360 H 7147.2 Z" />
    </clipPath>
    <clipPath
       id="clipPath425"
       clipPathUnits="userSpaceOnUse">
      <path
         inkscape:connector-curvature="0"
         id="path423"
         d="M 1689.44,3035.11 C 612.918,4491.18 552.848,7350.36 2136.33,8933.85 c 900.27,900.28 2099.54,1382.25 3285.34,1382.25 855.56,0 1704.07,-251 2427.63,-777.04 -562.76,270.21 -1184.16,404.82 -1817.61,404.82 -1170.06,0 -2381.22,-459.33 -3339.31,-1371.63 C 1081.87,7038.7 714.738,4728.56 1689.44,3035.11" />
    </clipPath>
    <clipPath
       id="clipPath431"
       clipPathUnits="userSpaceOnUse">
      <path
         inkscape:connector-curvature="0"
         id="path429"
         d="m 2284.8,8228.2 h 705.598 V 9629.8 H 2284.8 Z" />
    </clipPath>
    <clipPath
       id="clipPath443"
       clipPathUnits="userSpaceOnUse">
      <path
         inkscape:connector-curvature="0"
         id="path441"
         d="M 1689.44,3035.11 C 612.918,4491.18 552.848,7350.36 2136.33,8933.85 c 900.27,900.28 2099.54,1382.25 3285.34,1382.25 855.56,0 1704.07,-251 2427.63,-777.04 -562.76,270.21 -1184.16,404.82 -1817.61,404.82 -1170.06,0 -2381.22,-459.33 -3339.31,-1371.63 C 1081.87,7038.7 714.738,4728.56 1689.44,3035.11" />
    </clipPath>
    <clipPath
       id="clipPath449"
       clipPathUnits="userSpaceOnUse">
      <path
         inkscape:connector-curvature="0"
         id="path447"
         d="m 3672,9269.8 h 710.398 v 360 H 3672 Z" />
    </clipPath>
    <clipPath
       id="clipPath461"
       clipPathUnits="userSpaceOnUse">
      <path
         inkscape:connector-curvature="0"
         id="path459"
         d="M 1689.44,3035.11 C 612.918,4491.18 552.848,7350.36 2136.33,8933.85 c 900.27,900.28 2099.54,1382.25 3285.34,1382.25 855.56,0 1704.07,-251 2427.63,-777.04 -562.76,270.21 -1184.16,404.82 -1817.61,404.82 -1170.06,0 -2381.22,-459.33 -3339.31,-1371.63 C 1081.87,7038.7 714.738,4728.56 1689.44,3035.11" />
    </clipPath>
    <clipPath
       id="clipPath467"
       clipPathUnits="userSpaceOnUse">
      <path
         inkscape:connector-curvature="0"
         id="path465"
         d="m 7492.8,9269.8 h 364.801 v 360 H 7492.8 Z" />
    </clipPath>
    <clipPath
       id="clipPath479"
       clipPathUnits="userSpaceOnUse">
      <path
         inkscape:connector-curvature="0"
         id="path477"
         d="M 1689.44,3035.11 C 612.918,4491.18 552.848,7350.36 2136.33,8933.85 c 900.27,900.28 2099.54,1382.25 3285.34,1382.25 855.56,0 1704.07,-251 2427.63,-777.04 -562.76,270.21 -1184.16,404.82 -1817.61,404.82 -1170.06,0 -2381.22,-459.33 -3339.31,-1371.63 C 1081.87,7038.7 714.738,4728.56 1689.44,3035.11" />
    </clipPath>
    <clipPath
       id="clipPath485"
       clipPathUnits="userSpaceOnUse">
      <path
         inkscape:connector-curvature="0"
         id="path483"
         d="m 1934.4,7537 h 364.801 V 9284.2 H 1934.4 Z" />
    </clipPath>
    <clipPath
       id="clipPath497"
       clipPathUnits="userSpaceOnUse">
      <path
         inkscape:connector-curvature="0"
         id="path495"
         d="M 1689.44,3035.11 C 612.918,4491.18 552.848,7350.36 2136.33,8933.85 c 900.27,900.28 2099.54,1382.25 3285.34,1382.25 855.56,0 1704.07,-251 2427.63,-777.04 -562.76,270.21 -1184.16,404.82 -1817.61,404.82 -1170.06,0 -2381.22,-459.33 -3339.31,-1371.63 C 1081.87,7038.7 714.738,4728.56 1689.44,3035.11" />
    </clipPath>
    <clipPath
       id="clipPath503"
       clipPathUnits="userSpaceOnUse">
      <path
         inkscape:connector-curvature="0"
         id="path501"
         d="m 1588.8,6841 h 360 v 2097.6 h -360 z" />
    </clipPath>
    <clipPath
       id="clipPath515"
       clipPathUnits="userSpaceOnUse">
      <path
         inkscape:connector-curvature="0"
         id="path513"
         d="M 1689.44,3035.11 C 612.918,4491.18 552.848,7350.36 2136.33,8933.85 c 900.27,900.28 2099.54,1382.25 3285.34,1382.25 855.56,0 1704.07,-251 2427.63,-777.04 -562.76,270.21 -1184.16,404.82 -1817.61,404.82 -1170.06,0 -2381.22,-459.33 -3339.31,-1371.63 C 1081.87,7038.7 714.738,4728.56 1689.44,3035.11" />
    </clipPath>
    <clipPath
       id="clipPath521"
       clipPathUnits="userSpaceOnUse">
      <path
         inkscape:connector-curvature="0"
         id="path519"
         d="m 2976,8573.8 h 364.801 v 364.801 H 2976 Z" />
    </clipPath>
    <clipPath
       id="clipPath533"
       clipPathUnits="userSpaceOnUse">
      <path
         inkscape:connector-curvature="0"
         id="path531"
         d="M 1689.44,3035.11 C 612.918,4491.18 552.848,7350.36 2136.33,8933.85 c 900.27,900.28 2099.54,1382.25 3285.34,1382.25 855.56,0 1704.07,-251 2427.63,-777.04 -562.76,270.21 -1184.16,404.82 -1817.61,404.82 -1170.06,0 -2381.22,-459.33 -3339.31,-1371.63 C 1081.87,7038.7 714.738,4728.56 1689.44,3035.11" />
    </clipPath>
    <clipPath
       id="clipPath539"
       clipPathUnits="userSpaceOnUse">
      <path
         inkscape:connector-curvature="0"
         id="path537"
         d="m 1238.4,5799.4 h 364.801 V 8588.2 H 1238.4 Z" />
    </clipPath>
    <clipPath
       id="clipPath551"
       clipPathUnits="userSpaceOnUse">
      <path
         inkscape:connector-curvature="0"
         id="path549"
         d="M 1689.44,3035.11 C 612.918,4491.18 552.848,7350.36 2136.33,8933.85 c 900.27,900.28 2099.54,1382.25 3285.34,1382.25 855.56,0 1704.07,-251 2427.63,-777.04 -562.76,270.21 -1184.16,404.82 -1817.61,404.82 -1170.06,0 -2381.22,-459.33 -3339.31,-1371.63 C 1081.87,7038.7 714.738,4728.56 1689.44,3035.11" />
    </clipPath>
    <clipPath
       id="clipPath557"
       clipPathUnits="userSpaceOnUse">
      <path
         inkscape:connector-curvature="0"
         id="path555"
         d="m 2284.8,7882.6 h 360 v 360 h -360 z" />
    </clipPath>
    <clipPath
       id="clipPath569"
       clipPathUnits="userSpaceOnUse">
      <path
         inkscape:connector-curvature="0"
         id="path567"
         d="M 1689.44,3035.11 C 612.918,4491.18 552.848,7350.36 2136.33,8933.85 c 900.27,900.28 2099.54,1382.25 3285.34,1382.25 855.56,0 1704.07,-251 2427.63,-777.04 -562.76,270.21 -1184.16,404.82 -1817.61,404.82 -1170.06,0 -2381.22,-459.33 -3339.31,-1371.63 C 1081.87,7038.7 714.738,4728.56 1689.44,3035.11" />
    </clipPath>
    <clipPath
       id="clipPath575"
       clipPathUnits="userSpaceOnUse">
      <path
         inkscape:connector-curvature="0"
         id="path573"
         d="m 892.801,3721 h 360 v 4176 h -360 z" />
    </clipPath>
    <clipPath
       id="clipPath587"
       clipPathUnits="userSpaceOnUse">
      <path
         inkscape:connector-curvature="0"
         id="path585"
         d="M 1689.44,3035.11 C 612.918,4491.18 552.848,7350.36 2136.33,8933.85 c 900.27,900.28 2099.54,1382.25 3285.34,1382.25 855.56,0 1704.07,-251 2427.63,-777.04 -562.76,270.21 -1184.16,404.82 -1817.61,404.82 -1170.06,0 -2381.22,-459.33 -3339.31,-1371.63 C 1081.87,7038.7 714.738,4728.56 1689.44,3035.11" />
    </clipPath>
    <clipPath
       id="clipPath593"
       clipPathUnits="userSpaceOnUse">
      <path
         inkscape:connector-curvature="0"
         id="path591"
         d="m 1238.4,3029.8 h 364.801 V 4431.4 H 1238.4 Z" />
    </clipPath>
    <clipPath
       id="clipPath605"
       clipPathUnits="userSpaceOnUse">
      <path
         inkscape:connector-curvature="0"
         id="path603"
         d="M 1689.44,3035.11 C 612.918,4491.18 552.848,7350.36 2136.33,8933.85 c 900.27,900.28 2099.54,1382.25 3285.34,1382.25 855.56,0 1704.07,-251 2427.63,-777.04 -562.76,270.21 -1184.16,404.82 -1817.61,404.82 -1170.06,0 -2381.22,-459.33 -3339.31,-1371.63 C 1081.87,7038.7 714.738,4728.56 1689.44,3035.11" />
    </clipPath>
    <clipPath
       id="clipPath611"
       clipPathUnits="userSpaceOnUse">
      <path
         inkscape:connector-curvature="0"
         id="path609"
         d="m 1588.8,3029.8 h 360 v 360 h -360 z" />
    </clipPath>
  </defs>
  <sodipodi:namedview
     id="base"
     pagecolor="#ffffff"
     bordercolor="#666666"
     borderopacity="1.0"
     inkscape:pageopacity="0.0"
     inkscape:pageshadow="2"
     inkscape:zoom="0.35"
     inkscape:cx="-1248.5714"
     inkscape:cy="560"
     inkscape:document-units="mm"
     inkscape:current-layer="g6997"
     showgrid="true"
     showguides="true"
     inkscape:window-width="1385"
     inkscape:window-height="811"
     inkscape:window-x="177"
     inkscape:window-y="80"
     inkscape:window-maximized="0">
    <inkscape:grid
       type="xygrid"
       id="grid10" />
  </sodipodi:namedview>
  <metadata
     id="metadata5">
    <rdf:RDF>
      <cc:Work
         rdf:about="">
        <dc:format>image/svg+xml</dc:format>
        <dc:type
           rdf:resource="http://purl.org/dc/dcmitype/StillImage" />
        <dc:title />
      </cc:Work>
    </rdf:RDF>
  </metadata>
  <g
     inkscape:label="Layer 1"
     inkscape:groupmode="layer"
     id="layer1">
    <flowRoot
       xml:space="preserve"
       id="flowRoot5359"
       style="font-style:normal;font-weight:normal;font-size:40px;line-height:1.25;font-family:sans-serif;letter-spacing:0px;word-spacing:0px;fill:#000000;fill-opacity:1;stroke:none"
       transform="scale(0.26458333)"><flowRegion
         id="flowRegion5361"><rect
           id="rect5363"
           width="560"
           height="440"
           x="-1080"
           y="-77.480316" /></flowRegion><flowPara
         id="flowPara5365" /></flowRoot>    <flowRoot
       xml:space="preserve"
       id="flowRoot5367"
       style="fill:black;fill-opacity:1;stroke:none;font-family:sans-serif;font-style:normal;font-weight:normal;font-size:40px;line-height:1.25;letter-spacing:0px;word-spacing:0px"><flowRegion
         id="flowRegion5369"><rect
           id="rect5371"
           width="360"
           height="320"
           x="-920"
           y="42.519684" /></flowRegion><flowPara
         id="flowPara5373" /></flowRoot>    <g
       id="g6997"
       inkscape:export-xdpi="96"
       inkscape:export-ydpi="96">
      <circle
         style="fill:#f9f9f9;fill-opacity:1;stroke:#000000;stroke-width:0.62166655;stroke-miterlimit:4;stroke-dasharray:none;stroke-opacity:1"
         id="path972"
         cx="-194.96773"
         cy="111.72367"
         inkscape:export-xdpi="96"
         inkscape:export-ydpi="96"
         r="174.68916" />
      <path
         d="m -63.5,106.5 c -4.188435,-3.67605 -10.793931,-6.834228 -20.246123,-9.602385 -1.207431,-0.362226 -2.20098,-0.698316 -3.033063,-1.036094 -5.316678,-2.58888 -10.848159,-4.5292 -16.674964,-5.616375 -5.02094,-0.932379 -10.14997,-0.932379 -15.22516,-0.801668 -1.53075,0.05095 -3.03348,0.102226 -4.53752,0.180633 -5.42389,0.257717 -10.84819,0.69835 -16.24539,1.11288 -1.42224,0.103881 -2.84667,0.206769 -4.26849,0.283853 -1.37017,0.07841 -2.73904,0.156152 -4.10883,0.25904 -0.69733,0.07741 -1.39641,0.104542 -2.06706,0.181626 -6.25772,0.465544 -12.51324,0.801668 -18.76918,1.268503 -8.19006,0.621167 -16.37925,1.139049 -24.56842,1.73408 -8.78155,0.62077 -17.58847,1.243592 -26.39491,1.864362 -8.78155,0.594237 -17.5346,1.24154 -26.31526,1.862277 -5.04764,0.336124 -10.06819,0.69878 -15.11625,1.061866 L -291.22478,53.59354 c -1.18209,-1.580145 -3.08774,-2.51087 -5.10188,-2.51087 l -9.02214,0.05128 c -1.85317,0 -3.62496,0.828234 -4.77992,2.225363 -1.18075,1.373112 -1.66458,3.210478 -1.28793,4.970694 l 9.34323,43.795553 c -1.12738,0.0774 -2.28189,0.18163 -3.43637,0.25937 -2.28278,0.15384 -4.56467,0.30966 -6.8479,0.46512 -0.10608,0.0265 -0.29447,0 -0.40159,0.0265 -3.22249,0.0265 -5.9073,2.43283 -6.1492,5.53916 -0.24158,3.10594 2.0404,5.90145 5.23618,6.39317 l 90.43404,13.38172 -26.55588,15.58182 c -1.90609,1.13944 -2.81867,3.36649 -2.20139,5.4624 0.61772,2.09634 2.60518,3.54531 4.86039,3.52047 l 19.17166,-0.0781 c 0.53681,-0.0265 1.10114,-0.10421 1.61125,-0.28517 l 3.78595,-1.26768 h 20.6486 c 1.44981,0 2.63101,-0.87971 2.63101,-1.96771 0,-1.08804 -1.1812,-1.96689 -2.63101,-1.96689 h -8.83405 l 4.42992,-1.47511 h 15.57427 c 1.12738,0 2.04044,-0.88136 2.04044,-1.99427 0,-1.08549 -0.91306,-1.96686 -2.04044,-1.96686 h -3.75969 l 2.95388,-0.98346 h 14.60657 c 1.12869,0 2.04171,-0.87967 2.04171,-1.96685 0,-1.08631 -0.91302,-1.96771 -2.04171,-1.96771 h -2.81823 l 22.31318,-7.45407 70.162097,-0.49172 c 26.797391,-0.54358 28.812004,-10.09535 28.784013,-13.04646 0,-2.25193 -0.88637,-5.69395 -4.99428,-9.34344 v 0"
         style="fill:#0f7fc0;fill-opacity:1;fill-rule:nonzero;stroke:none;stroke-width:0.04295231"
         id="path5348"
         inkscape:connector-curvature="0" />
    </g>
  </g>
</svg>
